<?xml version="1.0" standalone="no"?>
<!DOCTYPE svg PUBLIC "-//W3C//DTD SVG 20010904//EN"
 "http://www.w3.org/TR/2001/REC-SVG-20010904/DTD/svg10.dtd">
<svg version="1.0" xmlns="http://www.w3.org/2000/svg"
 width="343.000000pt" height="132.000000pt" viewBox="0 0 343.000000 132.000000"
 preserveAspectRatio="xMidYMid meet">

<g transform="translate(0.000000,132.000000) scale(0.100000,-0.100000)"
fill="#000000" stroke="none">
<path d="M2565 1147 c-57 -23 -75 -38 -95 -77 -49 -96 -13 -169 125 -256 97
-61 129 -110 106 -160 -6 -14 -27 -32 -46 -40 -45 -19 -104 -5 -156 36 -20 16
-39 26 -43 23 -3 -4 -6 -23 -6 -44 0 -30 6 -41 28 -56 47 -33 81 -43 141 -43
91 0 145 37 172 117 28 85 -15 160 -134 237 -83 53 -127 96 -127 123 0 8 11
25 25 38 35 35 117 35 169 0 41 -28 50 -21 44 36 -2 25 -11 38 -35 52 -40 23
-128 31 -168 14z"/>
<path d="M1557 1143 c-9 -8 -9 -576 -1 -597 6 -16 39 -21 68 -10 14 5 16 35
16 229 0 123 3 226 8 228 4 2 45 -44 92 -104 47 -59 91 -108 97 -109 7 0 52
50 100 110 l88 110 3 -222 c1 -148 6 -226 14 -235 6 -8 25 -13 42 -11 l31 3 0
305 0 305 -36 3 c-41 3 -44 1 -162 -151 -37 -48 -71 -87 -77 -87 -5 0 -53 54
-107 120 -92 113 -99 120 -133 120 -20 0 -40 -3 -43 -7z"/>
<path d="M2262 843 l3 -308 37 -3 c32 -3 38 0 43 20 3 13 4 151 3 308 l-3 285
-43 3 -42 3 2 -308z"/>
<path d="M2857 1144 c-4 -4 -7 -22 -7 -41 l0 -33 94 0 c66 0 97 -4 105 -13 7
-9 12 -101 13 -268 l3 -254 35 0 35 0 3 254 c1 167 6 259 13 268 8 9 40 13
111 13 l99 0 -3 38 -3 37 -246 3 c-135 1 -248 -1 -252 -4z"/>
<path d="M666 1113 c-3 -16 -9 -106 -12 -200 -6 -133 -10 -173 -20 -173 -13 0
-85 30 -94 40 -3 3 -32 18 -65 35 -33 16 -62 32 -65 35 -15 16 -121 61 -130
55 -16 -10 10 -29 170 -131 77 -49 142 -94 144 -101 3 -7 -62 -54 -155 -113
-87 -56 -159 -106 -159 -111 0 -13 21 -11 50 4 197 106 304 157 310 150 4 -4
10 -84 13 -178 3 -93 8 -180 12 -192 14 -45 25 -21 25 55 0 79 17 287 25 310
3 9 32 -2 97 -35 51 -26 95 -50 98 -53 3 -4 23 -14 45 -24 22 -11 42 -22 45
-25 10 -12 50 -31 65 -31 24 0 17 17 -17 41 -18 13 -34 27 -36 31 -2 4 -8 8
-13 8 -18 0 -239 145 -239 157 0 12 261 183 279 183 6 0 11 5 11 10 0 6 6 10
14 10 14 0 30 29 21 38 -5 6 -126 -48 -135 -59 -3 -4 -32 -20 -65 -35 -33 -15
-62 -30 -65 -34 -12 -13 -100 -49 -104 -42 -2 4 -10 96 -17 205 -7 108 -16
197 -20 197 -4 0 -9 -12 -13 -27z"/>
<path d="M1635 406 c-53 -24 -77 -59 -78 -113 0 -26 5 -58 12 -71 28 -53 122
-79 180 -49 48 24 35 35 -38 29 -65 -4 -71 -3 -95 21 -39 39 -36 96 6 132 26
22 39 26 72 23 23 -3 49 -8 59 -12 21 -10 24 16 4 32 -22 19 -90 23 -122 8z"/>
<path d="M1912 288 l3 -123 70 0 c56 0 70 3 70 15 0 11 -14 16 -52 18 l-53 3
0 35 0 34 50 0 c37 0 50 4 50 14 0 11 -14 16 -47 18 -48 3 -48 3 -48 38 0 35
0 35 48 38 33 2 47 7 47 18 0 11 -16 14 -70 14 l-71 0 3 -122z"/>
<path d="M2190 285 c0 -104 2 -125 15 -125 12 0 15 16 15 84 0 47 4 87 8 90 5
3 44 -35 86 -85 43 -50 83 -88 89 -86 8 2 13 44 15 126 2 113 1 122 -15 119
-15 -3 -18 -16 -21 -86 -2 -46 -6 -82 -11 -80 -4 2 -40 40 -80 86 -40 45 -79
82 -87 82 -11 0 -14 -23 -14 -125z"/>
<path d="M2550 396 c0 -10 13 -16 38 -18 l37 -3 5 -104 c3 -71 9 -106 18 -109
9 -3 12 22 12 101 0 114 1 117 61 117 19 0 29 5 29 15 0 12 -18 15 -100 15
-80 0 -100 -3 -100 -14z"/>
<path d="M2884 397 c-2 -7 -3 -62 -2 -123 l3 -109 70 0 c56 0 70 3 70 15 0 11
-14 16 -52 18 l-53 3 0 35 c0 34 0 34 45 34 33 0 45 4 45 14 0 10 -14 16 -42
18 -42 3 -43 4 -43 38 0 35 0 35 48 38 33 2 47 7 47 18 0 19 -128 20 -136 1z"/>
<path d="M3157 403 c-4 -3 -7 -57 -7 -119 0 -87 3 -113 14 -117 21 -8 26 2 26
55 0 39 3 48 18 48 23 -1 42 -17 75 -67 15 -24 34 -43 42 -43 22 0 19 9 -20
68 -34 49 -35 54 -20 74 38 55 1 108 -75 108 -26 0 -50 -3 -53 -7z m105 -46
c13 -20 -12 -47 -42 -47 -26 0 -30 4 -30 29 0 16 6 32 13 34 16 7 50 -3 59
-16z"/>
</g>
</svg>
