<?xml version="1.0" standalone="no"?>
<!DOCTYPE svg PUBLIC "-//W3C//DTD SVG 20010904//EN"
 "http://www.w3.org/TR/2001/REC-SVG-20010904/DTD/svg10.dtd">
<svg version="1.0" xmlns="http://www.w3.org/2000/svg"
 width="190.000000pt" height="97.000000pt" viewBox="0 0 190.000000 97.000000"
 preserveAspectRatio="xMidYMid meet">
<metadata>
Created by potrace 1.13, written by Peter Selinger 2001-2015
</metadata>
<g transform="translate(0.000000,97.000000) scale(0.100000,-0.100000)"
fill="#000000" stroke="none">
<path d="M340 727 c0 -63 -3 -116 -6 -119 -3 -3 -50 19 -106 49 -76 41 -103
52 -109 42 -8 -14 5 -25 119 -94 34 -21 62 -41 62 -46 0 -4 -43 -33 -95 -65
-65 -40 -92 -61 -84 -69 7 -7 40 6 107 40 53 28 100 52 104 53 5 2 8 -51 8
-117 0 -98 3 -121 14 -121 14 0 21 51 29 191 l2 47 99 -54 c106 -58 116 -61
116 -40 0 7 -42 39 -94 71 -52 33 -93 62 -90 66 2 5 42 31 87 58 118 73 113
69 101 81 -7 7 -42 -7 -117 -46 l-107 -55 0 104 c0 114 -4 137 -26 137 -11 0
-14 -23 -14 -113z"/>
<path d="M1418 824 c-32 -17 -48 -43 -48 -78 0 -41 10 -55 72 -97 32 -22 64
-52 71 -66 10 -22 8 -28 -12 -44 -31 -25 -51 -24 -95 6 l-36 24 0 -29 c0 -23
7 -33 30 -45 70 -36 153 -6 166 59 8 48 -13 82 -82 131 -61 42 -74 65 -54 90
16 19 53 19 90 0 30 -15 30 -15 30 14 0 24 -6 31 -31 40 -42 15 -68 13 -101
-5z"/>
<path d="M860 655 l0 -175 25 0 25 0 0 136 0 137 51 -64 c28 -35 54 -65 58
-67 5 -1 31 27 60 64 l51 67 0 -137 0 -136 25 0 25 0 0 175 0 175 -24 0 c-19
0 -38 -17 -80 -70 l-55 -70 -57 70 c-41 51 -63 70 -80 70 l-24 0 0 -175z"/>
<path d="M1260 655 l0 -175 25 0 25 0 0 175 0 175 -25 0 -25 0 0 -175z"/>
<path d="M1592 808 c3 -20 10 -23 60 -26 l57 -3 3 -147 3 -147 25 0 25 0 3
147 3 147 57 3 c50 3 57 6 60 26 3 22 3 22 -148 22 -151 0 -151 0 -148 -22z"/>
</g>
</svg>
